<?xml version="1.0" standalone="no"?>
<svg viewBox="0 0 200 200" xmlns="http://www.w3.org/2000/svg">
        <path
          fill="#8A3FFC"
          d="M25.9,-33.1C32.1,-31.2,34.7,-21.6,40.5,-11.4C46.2,-1.1,55.2,9.9,53,17.4C50.8,24.9,37.4,28.9,26.7,31C16,33,8,32.9,-5.5,40.5C-18.9,48,-37.9,63.1,-40.8,58.6C-43.6,54,-30.5,29.8,-34.6,12.3C-38.8,-5.1,-60.4,-15.9,-63.1,-24.4C-65.7,-33,-49.4,-39.3,-35.8,-38.9C-22.1,-38.4,-11.1,-31.2,-0.6,-30.4C9.9,-29.5,19.7,-35.1,25.9,-33.1Z"
          transform="translate(100 100)"
        />
      </svg>
